<?xml version="1.0" encoding="utf-8"?>
<!-- Generator: Adobe Illustrator 25.3.1, SVG Export Plug-In . SVG Version: 6.00 Build 0)  -->
<svg version="1.1" id="Layer_1" xmlns="http://www.w3.org/2000/svg" xmlns:xlink="http://www.w3.org/1999/xlink" x="0px" y="0px"
	 viewBox="0 0 1224 792" style="enable-background:new 0 0 1224 792;" xml:space="preserve">
<style type="text/css">
	.st0{fill:#009AE4;}
	.st1{fill:#FFFFFF;stroke:#FFFFFF;stroke-width:20;stroke-miterlimit:10;}
	.st2{fill:#FFFFFF;}
	.st3{fill:#53D2F9;}
	.st4{fill:#A0E4F9;}
	.st5{fill:#EB9AFC;}
	.st6{fill:#E2B639;}
	.st7{fill:#FCDB75;}
</style>
<g>
	<path class="st0" d="M856.58,772.66L620.44,670.69c-4.74-2.05-10.11-2.05-14.85-0.02l-238.22,102.1
		c-12.4,5.31-26.19-3.78-26.19-17.27V36.48c0-10.38,8.41-18.79,18.79-18.79h504.06c10.38,0,18.79,8.41,18.79,18.79v718.94
		C882.82,768.93,868.99,778.02,856.58,772.66z"/>
	<path class="st1" d="M732.13,75.34h-66.82c-4.68,0-9.2,1.75-12.66,4.91l-27.99,25.55c-7.17,6.55-18.15,6.55-25.32,0l-27.99-25.55
		c-3.46-3.16-7.98-4.91-12.66-4.91h-66.82c-6.69,0-12.88,3.56-16.24,9.35l-36.93,63.61c-1.66,2.86-2.54,6.12-2.54,9.43v87.94
		c0,5.2,2.15,10.16,5.95,13.71l157.06,146.94c7.22,6.75,18.44,6.75,25.66,0l157.06-146.94c3.8-3.55,5.95-8.52,5.95-13.71v-87.94
		c0-3.31-0.88-6.56-2.54-9.43L748.38,84.7C745.02,78.91,738.83,75.34,732.13,75.34z"/>
	<g>
		<polygon points="726.51,103.89 669.1,103.89 612,156.01 554.9,103.89 497.49,103.89 464.71,160.37 464.71,241.44 612,379.24 
			759.29,241.44 759.29,160.37 		"/>
		<polygon class="st2" points="726.51,103.89 669.1,103.89 612,156.01 554.9,103.89 497.49,103.89 464.71,160.37 464.71,241.44 
			612,379.24 759.29,241.44 759.29,160.37 		"/>
		<polygon class="st3" points="726.51,103.89 669.1,103.89 612,156.01 554.9,103.89 497.49,103.89 464.71,160.37 464.71,241.44 
			612,379.24 759.29,241.44 759.29,160.37 		"/>
		<path class="st3" d="M707.72,136.52l18.94,32.63v58.13L612,334.56L497.34,227.28v-58.13l18.94-32.63h25.97L590,180.11l22,20.08
			l22-20.08l47.76-43.59H707.72 M726.51,103.89H669.1L612,156.01l-57.1-52.12h-57.41l-32.78,56.47v81.07L612,379.24l147.29-137.8
			v-81.07L726.51,103.89L726.51,103.89z"/>
		<path class="st3" d="M707.72,136.52l18.94,32.63v58.13L612,334.56L497.34,227.28v-58.13l18.94-32.63h25.97L590,180.11l22,20.08
			l22-20.08l47.76-43.59H707.72 M726.51,103.89H669.1L612,156.01l-57.1-52.12h-57.41l-32.78,56.47v81.07L612,379.24l147.29-137.8
			v-81.07L726.51,103.89L726.51,103.89z"/>
		<g>
			<path class="st0" d="M732.13,75.34h-66.82c-4.68,0-9.2,1.75-12.66,4.91l-27.99,25.55c-7.17,6.55-18.15,6.55-25.32,0l-27.99-25.55
				c-3.46-3.16-7.98-4.91-12.66-4.91h-66.82c-6.69,0-12.88,3.56-16.24,9.35l-36.93,63.61c-1.66,2.86-2.54,6.12-2.54,9.43v87.94
				c0,5.2,2.15,10.16,5.95,13.71l157.06,146.94c7.22,6.75,18.44,6.75,25.66,0l157.06-146.94c3.8-3.55,5.95-8.52,5.95-13.71v-87.94
				c0-3.31-0.88-6.56-2.54-9.43L748.38,84.7C745.02,78.91,738.83,75.34,732.13,75.34z M727.49,105.58l17.26,29.74
				c1.33,2.28-0.35,5.14-2.99,5.1l-30.15-0.46c-1.19-0.02-2.29-0.66-2.88-1.69l-1.02-1.75h-0.62l-16.4-27.49
				c-1.35-2.26,0.28-5.13,2.91-5.13h30.93C725.77,103.89,726.88,104.54,727.49,105.58z M609.71,242.27c1.3,1.18,3.28,1.18,4.58,0
				l41.7-38.06l31.73-28.96c1.6-1.46,4.14-1.07,5.22,0.8l0.63,1.09c0.3,0.52,0.46,1.11,0.46,1.7v32.81c0,0.94-0.39,1.84-1.08,2.48
				l-78.64,73.57c-1.3,1.22-3.33,1.22-4.64,0l-78.64-73.57c-0.69-0.64-1.08-1.54-1.08-2.48v-32.81c0-0.6,0.16-1.19,0.46-1.7
				l0.63-1.09c1.09-1.87,3.62-2.26,5.22-0.8l31.73,28.96L609.71,242.27z M672.15,141.61c0.83,1.38,0.56,3.16-0.63,4.25L634,180.11
				l0,0c-2.18,1.99-5.68,0.44-5.68-2.51v-34.98c0-0.95,0.4-1.86,1.11-2.51l24.02-21.93c1.59-1.45,4.1-1.08,5.2,0.77L672.15,141.61z
				 M570.56,118.19l24.02,21.93c0.7,0.64,1.11,1.55,1.11,2.51v34.98c0,2.95-3.5,4.5-5.68,2.51v0l-37.53-34.26
				c-1.19-1.09-1.45-2.86-0.63-4.25l13.51-22.65C566.46,117.11,568.97,116.74,570.56,118.19z M499.44,103.89h30.93
				c2.63,0,4.26,2.87,2.91,5.13l-16.4,27.49h-0.62l-1.02,1.75c-0.6,1.03-1.69,1.67-2.88,1.69l-30.15,0.46
				c-2.64,0.04-4.31-2.81-2.99-5.1l17.26-29.74C497.12,104.54,498.23,103.89,499.44,103.89z M468.05,173.27l25.84-0.4
				c1.89-0.03,3.45,1.5,3.45,3.39v42.58c0,1.86-1.5,3.37-3.36,3.39l-25.84,0.29c-1.89,0.02-3.43-1.5-3.43-3.39v-42.48
				C464.71,174.81,466.2,173.3,468.05,173.27z M525.08,297.92l-39.66-37.11c-2.23-2.09-0.78-5.84,2.28-5.87l37.38-0.42
				c0.87-0.01,1.72,0.32,2.36,0.92l20.83,19.48c1.41,1.32,1.44,3.56,0.05,4.91l-18.54,18.04
				C528.47,299.14,526.41,299.16,525.08,297.92z M609.68,377.07l-55.78-52.19c-1.41-1.32-1.44-3.56-0.05-4.91l18.54-18.04
				c1.3-1.26,3.36-1.28,4.69-0.05l31.82,29.77l6.82,6.63c2.15,2.09,5.76,0.57,5.76-2.43v-8.68c0-0.94,0.39-1.84,1.08-2.48
				l74.02-69.25c0.64-0.6,1.48-0.93,2.36-0.92l37.38,0.42c3.06,0.03,4.52,3.78,2.28,5.87l-11.05,10.34L614.32,377.07
				C613.01,378.29,610.99,378.29,609.68,377.07z M755.86,222.53l-25.84-0.29c-1.86-0.02-3.36-1.53-3.36-3.39v-42.58
				c0-1.89,1.55-3.42,3.45-3.39l25.84,0.4c1.85,0.03,3.34,1.54,3.34,3.39v42.48C759.29,221.03,757.75,222.55,755.86,222.53z"/>
			<polygon class="st0" points="719.89,278.3 727.53,271.15 728.08,270.64 			"/>
		</g>
		<polyline class="st4" points="533.17,172.41 568.01,204.21 612,244.36 655.99,204.21 690.83,172.41 694.04,177.93 694.04,213.13 
			612,289.88 529.96,213.13 529.96,177.93 533.17,172.41 		"/>
		<polygon class="st2" points="655.99,204.21 612,244.36 611.09,243.53 611.09,289.03 612,289.88 694.04,213.13 694.04,177.93 
			690.83,172.41 		"/>
		<polygon class="st4" points="497.34,172.82 497.34,222.21 464.71,222.57 464.71,173.32 		"/>
		<path class="st5" d="M609.68,377.07l-55.78-52.19c-1.41-1.32-1.44-3.56-0.05-4.91l18.54-18.04c1.3-1.26,3.36-1.28,4.69-0.05
			l31.82,29.77l6.82,6.63c2.15,2.09,5.76,0.57,5.76-2.43v-8.68c0-0.94,0.39-1.84,1.08-2.48l74.02-69.25
			c0.64-0.6,1.48-0.93,2.36-0.92l37.38,0.42c3.06,0.03,4.52,3.78,2.28,5.87l-11.05,10.34L614.32,377.07
			C613.01,378.29,610.99,378.29,609.68,377.07z"/>
		<path class="st6" d="M570.56,118.19l24.02,21.93c0.7,0.64,1.11,1.55,1.11,2.51v34.98c0,2.95-3.5,4.5-5.68,2.51v0l-37.53-34.26
			c-1.19-1.09-1.45-2.86-0.63-4.25l13.51-22.65C566.46,117.11,568.97,116.74,570.56,118.19z"/>
		<path class="st7" d="M499.44,103.89h30.93c2.63,0,4.26,2.87,2.91,5.13l-16.4,27.49h-0.62l-1.02,1.75
			c-0.6,1.03-1.69,1.67-2.88,1.69l-30.15,0.46c-2.64,0.04-4.31-2.81-2.99-5.1l17.26-29.74
			C497.12,104.54,498.23,103.89,499.44,103.89z"/>
	</g>
	<g>
		<path class="st2" d="M730.39,569.22h-0.42c0,0,0.04,3.08-0.81,5.98l-1.58,5.04h5.34l-1.58-5
			C730.48,572.34,730.39,569.22,730.39,569.22z"/>
		<path class="st2" d="M475.51,568.92h-4.61v5.68h4.61c1.79,0,2.82-1.11,2.82-2.86C478.33,569.99,477.35,568.92,475.51,568.92z"/>
		<path class="st2" d="M632.72,569.22h-0.43c0,0,0.04,3.08-0.81,5.98l-1.58,5.04h5.34l-1.58-5
			C632.8,572.34,632.72,569.22,632.72,569.22z"/>
		<path class="st2" d="M563.74,568.92h-4.61v5.68h4.61c1.79,0,2.82-1.11,2.82-2.86C566.56,569.99,565.58,568.92,563.74,568.92z"/>
		<path class="st2" d="M369.26,545.48v60.79h485.48v-60.79H369.26z M426.66,563.24l-6.79,27.09c-0.34,1.24-0.98,1.5-2.18,1.5h-5
			c-1.24,0-1.97-0.3-2.22-1.41l-2.31-10c-0.55-2.69-0.77-5.25-0.81-7.69H407c-0.09,2.44-0.34,4.96-0.94,7.69l-2.31,9.91
			c-0.3,1.24-1.03,1.5-2.22,1.5h-4.87c-1.24,0-1.97-0.26-2.22-1.41l-6.75-27.17c-0.3-1.2-0.17-1.75,1.15-1.75h5.26
			c1.5,0,2.14,0.26,2.39,1.58l1.88,11.19c0.34,2.27,0.6,6.37,0.6,7.56h0.3c0-1.28,0.3-5.25,0.81-7.56l2.65-11.19
			c0.3-1.37,1.03-1.58,2.39-1.58h4.57c1.37,0,2.14,0.26,2.39,1.58l2.65,11.19c0.51,2.44,0.77,6.32,0.81,7.56h0.34
			c0.04-1.2,0.3-5.21,0.64-7.56l1.8-11.19c0.25-1.33,0.9-1.58,2.43-1.58h4.74C426.83,561.49,426.96,562.04,426.66,563.24z
			 M456.55,580.54c0,7.35-4.7,11.92-13.12,11.92c-8.46,0-13.12-4.57-13.12-11.92v-7.78c0-7.35,4.66-11.92,13.12-11.92
			c8.42,0,13.12,4.57,13.12,11.92V580.54z M486.36,591.82h-4.61c-2.27,0-3.2-0.55-3.93-2.05l-2.73-5.85
			c-0.73-1.46-1.45-2.18-3.2-2.18h-0.98v8.29c0,1.32-0.43,1.79-1.79,1.79h-4.83c-1.37,0-1.79-0.47-1.79-1.79v-26.75
			c0-1.33,0.42-1.79,1.79-1.79h12.18c6.45,0,10.64,3.67,10.64,10.3c0,4.14-1.71,7.18-4.61,8.8c0.42,0.56,0.81,1.15,1.15,1.84
			l3.85,7.31C488.07,590.88,487.77,591.82,486.36,591.82z M517.24,591.82h-4.61c-2.26,0-3.03-0.3-3.76-1.79l-3.72-7.65
			c-0.68-1.41-1.32-2.18-2.95-2.18h-0.77v9.83c0,1.32-0.43,1.79-1.79,1.79h-4.83c-1.37,0-1.8-0.47-1.8-1.79v-26.75
			c0-1.33,0.43-1.79,1.8-1.79h4.83c1.37,0,1.79,0.47,1.79,1.79v9.48l0.6,0.04h0.34l6.15-9.74c0.81-1.33,1.24-1.58,3.42-1.58h4.91
			c1.28,0,1.71,0.77,1.03,1.88l-7.78,12.35c1.03,0.81,1.84,1.88,2.61,3.33l5.64,10.68C518.95,590.88,518.65,591.82,517.24,591.82z
			 M545.17,590.03c0,1.32-0.47,1.79-1.8,1.79h-18.29c-1.37,0-1.79-0.47-1.79-1.79v-26.75c0-1.33,0.42-1.79,1.79-1.79h17.9
			c1.37,0,1.84,0.47,1.84,1.79v3.85c0,1.37-0.47,1.79-1.84,1.79h-11.28v3.85h9.02c1.37,0,1.84,0.47,1.84,1.84v3.8
			c0,1.37-0.47,1.84-1.84,1.84h-9.02v4.1h11.66c1.33,0,1.8,0.43,1.8,1.8V590.03z M574.59,591.82h-4.61c-2.26,0-3.21-0.55-3.93-2.05
			l-2.73-5.85c-0.73-1.46-1.45-2.18-3.21-2.18h-0.98v8.29c0,1.32-0.43,1.79-1.79,1.79h-4.83c-1.37,0-1.8-0.47-1.8-1.79v-26.75
			c0-1.33,0.43-1.79,1.8-1.79h12.18c6.45,0,10.64,3.67,10.64,10.3c0,4.14-1.71,7.18-4.61,8.8c0.43,0.56,0.81,1.15,1.15,1.84
			l3.85,7.31C576.3,590.88,576,591.82,574.59,591.82z M592.61,592.46c-6.37,0-10.81-2.18-12.43-6.62c-0.43-1.28-0.09-1.88,1.15-2.35
			l4.01-1.45c1.28-0.43,1.84-0.3,2.52,0.94c0.77,1.5,2.43,2.27,4.83,2.27c2.86,0,4.61-0.6,4.61-2.44c0-1.71-2.22-2.13-5.04-2.52
			c-5-0.73-12.01-1.58-12.01-9.87c0-5.64,4.53-9.57,12.69-9.57c6.32,0,9.91,1.88,11.92,5.98c0.6,1.24,0.26,1.88-1.03,2.39
			l-4.23,1.84c-1.2,0.51-1.67,0.34-2.31-0.9c-0.85-1.62-2.39-2.22-4.36-2.22c-2.91,0-4.06,0.73-4.06,2.22c0,1.84,2.52,2.22,5.6,2.61
			c4.96,0.68,11.36,1.88,11.36,9.96C605.86,589,600.18,592.46,592.61,592.46z M645.96,591.82h-4.61c-2.18,0-2.86-0.47-3.2-1.79
			l-0.94-3.08h-9.31l-0.98,3.08c-0.39,1.32-0.98,1.79-3.08,1.79h-4.49c-1.32,0-1.58-0.6-1.15-1.75l9.82-27.09
			c0.43-1.24,1.03-1.49,2.22-1.49h4.87c1.2,0,1.79,0.3,2.22,1.41l9.87,27.17C647.63,591.22,647.24,591.82,645.96,591.82z
			 M672.35,590.03c0,1.32-0.47,1.79-1.79,1.79h-16.92c-1.37,0-1.8-0.47-1.8-1.79v-26.75c0-1.33,0.43-1.79,1.8-1.79h4.83
			c1.37,0,1.79,0.47,1.79,1.79v21.06h10.3c1.32,0,1.79,0.43,1.79,1.8V590.03z M697.81,590.03c0,1.32-0.47,1.79-1.79,1.79h-16.92
			c-1.37,0-1.8-0.47-1.8-1.79v-26.75c0-1.33,0.43-1.79,1.8-1.79h4.83c1.37,0,1.79,0.47,1.79,1.79v21.06h10.3
			c1.32,0,1.79,0.43,1.79,1.8V590.03z M711.17,590.11c0,1.28-0.43,1.71-1.71,1.71h-5c-1.28,0-1.71-0.43-1.71-1.71v-26.92
			c0-1.28,0.43-1.71,1.71-1.71h5c1.28,0,1.71,0.43,1.71,1.71V590.11z M743.64,591.82h-4.61c-2.18,0-2.86-0.47-3.21-1.79l-0.94-3.08
			h-9.31l-0.98,3.08c-0.38,1.32-0.98,1.79-3.08,1.79h-4.48c-1.33,0-1.58-0.6-1.15-1.75l9.83-27.09c0.42-1.24,1.03-1.49,2.22-1.49
			h4.87c1.2,0,1.8,0.3,2.22,1.41l9.87,27.17C745.3,591.22,744.91,591.82,743.64,591.82z M775.11,590.03c0,1.32-0.47,1.79-1.79,1.79
			h-4.83c-0.9,0-1.37-0.26-1.75-0.85l-6.58-10.17c-1.88-2.95-2.61-4.96-3.76-8.76h-0.34c0.9,4.02,1.41,6.24,1.41,11.03v6.96
			c0,1.32-0.47,1.79-1.84,1.79h-4.32c-1.37,0-1.79-0.47-1.79-1.79v-26.75c0-1.33,0.42-1.79,1.79-1.79h5.04
			c0.94,0,1.41,0.26,1.79,0.85l7.01,10.98c1.88,2.91,2.27,4.57,3.59,7.77h0.34c-1.37-4.36-1.92-6.45-1.92-10.77v-7.05
			c0-1.33,0.43-1.79,1.79-1.79h4.36c1.33,0,1.79,0.47,1.79,1.79V590.03z M794.11,584.98c2.39,0,3.76-0.94,4.44-2.78
			c0.51-1.33,1.07-1.63,2.3-1.15l4.57,1.62c1.24,0.43,1.58,1.07,1.11,2.31c-1.75,4.79-5.85,7.48-12.43,7.48
			c-8.42,0-13.12-4.57-13.12-11.92v-7.78c0-7.35,4.7-11.92,13.12-11.92c6.58,0,10.68,2.69,12.43,7.48c0.47,1.24,0.13,1.84-1.11,2.31
			l-4.57,1.62c-1.32,0.39-1.84,0.17-2.3-1.15c-0.77-1.92-2.01-2.78-4.44-2.78c-3.38,0-4.7,1.45-4.7,4.4v7.86
			C789.41,583.53,790.74,584.98,794.11,584.98z M833.7,590.03c0,1.32-0.47,1.79-1.79,1.79h-18.29c-1.37,0-1.8-0.47-1.8-1.79v-26.75
			c0-1.33,0.43-1.79,1.8-1.79h17.9c1.37,0,1.84,0.47,1.84,1.79v3.85c0,1.37-0.47,1.79-1.84,1.79h-11.28v3.85h9.01
			c1.37,0,1.84,0.47,1.84,1.84v3.8c0,1.37-0.47,1.84-1.84,1.84h-9.01v4.1h11.67c1.32,0,1.79,0.43,1.79,1.8V590.03z"/>
		<path class="st2" d="M443.43,568.32c-2.99,0-4.7,1.41-4.7,4.1v8.46c0,2.69,1.71,4.1,4.7,4.1c2.95,0,4.66-1.41,4.66-4.1v-8.46
			C448.09,569.73,446.38,568.32,443.43,568.32z"/>
		<path class="st2" d="M587.1,525.72h35.12c16.67,0,29.09-8.16,29.09-23.41c0-10.29-4.37-17.03-11.94-20.34v-0.47
			c6.03-4.14,8.51-9.46,8.51-17.38c0-14.43-9.81-22.35-26.13-22.35H587.1c-3.78,0-4.97,1.3-4.97,4.97v74.02
			C582.14,524.42,583.32,525.72,587.1,525.72z"/>
		<path class="st2" d="M704.01,525.72h10.61c3.67,0,4.97-1.18,4.97-4.97v-4.12l9.09,9.09h37.41c3.9,0,4.73-2.6,3.07-5.79
			l-15.61-29.56c-2.06-3.89-4.23-6.77-6.94-8.99v-0.67l21.24-33.73c1.89-3.07,0.71-5.2-2.84-5.2h-36.34l-9.09,9.09v-4.12
			c0-3.78-1.3-4.97-4.97-4.97h-10.61c-3.78,0-4.97,1.3-4.97,4.97v74.02C699.04,524.42,700.23,525.72,704.01,525.72z"/>
		<path class="st2" d="M457.75,525.72h12.42c1.71,0,7.94,0,15.41,0l6-6c1.71-1.71,4.47-1.71,6.18,0l6,6c6.96,0,12.81,0,14.89,0
			h12.77c3.55,0,4.61-1.66,3.43-4.85l-27.31-75.2c-1.18-3.07-2.84-3.9-6.15-3.9H487.9c-3.31,0-4.97,0.71-6.15,4.14l-27.19,74.96
			C453.38,524.07,454.09,525.72,457.75,525.72z"/>
	</g>
</g>
</svg>
