<?xml version="1.0" encoding="utf-8"?>
<!-- Generator: Adobe Illustrator 25.3.1, SVG Export Plug-In . SVG Version: 6.00 Build 0)  -->
<svg version="1.1" id="Layer_1" xmlns="http://www.w3.org/2000/svg" xmlns:xlink="http://www.w3.org/1999/xlink" x="0px" y="0px"
	 viewBox="0 0 1224 792" style="enable-background:new 0 0 1224 792;" xml:space="preserve">
<style type="text/css">
	.st0{fill:#009AE4;}
	.st1{fill:#FFFFFF;stroke:#FFFFFF;stroke-width:20;stroke-miterlimit:10;}
	.st2{fill:#FFFFFF;}
	.st3{fill:#53D2F9;}
	.st4{fill:#A0E4F9;}
	.st5{fill:#EB9AFC;}
	.st6{fill:#E2B639;}
	.st7{fill:#FCDB75;}
</style>
<g>
	<g>
		<path class="st0" d="M401.5,597.73l1.76-6.05h-3.84c-1.82,0-2.27-0.65-1.82-2.47l1.69-5.4c0.52-1.75,1.37-2.27,3.32-2.27h3.71
			l1.88-6.31h-3.83c-1.88,0-2.47-0.65-1.88-2.41l1.69-5.4c0.52-1.82,1.37-2.27,3.25-2.27h3.77l1.82-6.24
			c0.52-1.75,1.37-2.47,3.19-2.47h5.92c1.88,0,2.34,0.72,1.82,2.47l-1.82,6.24h5.72l1.82-6.24c0.58-1.75,1.3-2.47,3.19-2.47h5.92
			c1.88,0,2.34,0.72,1.82,2.47l-1.88,6.24h3.83c1.89,0,2.28,0.58,1.82,2.41l-1.56,5.39c-0.52,1.69-1.5,2.28-3.32,2.28h-3.77
			l-1.88,6.31h3.9c1.88,0,2.4,0.65,1.88,2.4l-1.75,5.4c-0.52,1.75-1.37,2.34-3.32,2.34h-3.77l-1.76,6.05
			c-0.52,1.75-1.3,2.47-3.18,2.47h-5.92c-1.89,0-2.34-0.71-1.82-2.47l1.82-6.05h-5.72l-1.82,6.05c-0.52,1.75-1.3,2.47-3.18,2.47
			h-5.92C401.44,600.2,400.92,599.49,401.5,597.73z M422.89,581.55l1.95-6.31h-5.79l-1.88,6.31H422.89z"/>
		<path class="st0" d="M448.11,597.54l14.95-41.21c0.65-1.88,1.56-2.27,3.38-2.27h7.41c1.82,0,2.73,0.46,3.38,2.14l15.02,41.34
			c0.65,1.75,0.06,2.67-1.88,2.67h-7.02c-3.32,0-4.36-0.71-4.88-2.73l-1.43-4.68h-14.17l-1.5,4.68c-0.58,2.02-1.5,2.73-4.68,2.73
			h-6.83C447.85,600.2,447.46,599.29,448.11,597.54z M474.04,582.59l-2.4-7.61c-1.3-4.42-1.43-9.17-1.43-9.17h-0.65
			c0,0,0.06,4.68-1.24,9.1l-2.41,7.67H474.04z"/>
		<path class="st0" d="M497.7,597.47v-40.69c0-2.01,0.65-2.73,2.73-2.73h19.05c8.97,0,14.37,4.35,14.37,12.29
			c0,4.36-1.37,7.28-4.68,9.56v0.26c4.16,1.82,6.57,5.53,6.57,11.18c0,8.38-6.83,12.87-15.99,12.87h-19.31
			C498.35,600.2,497.7,599.49,497.7,597.47z M516.81,571.6c2.6,0,4.03-0.97,4.03-3.51s-1.43-3.64-4.03-3.64h-6.3v7.15H516.81z
			 M518.04,589.74c2.79,0,4.22-1.17,4.22-3.9c0-2.6-1.43-3.77-4.22-3.77h-7.54v7.67H518.04z"/>
		<path class="st0" d="M540.79,586.16v-5.79c0-9.68,5.72-14.95,16.25-14.95c11.25,0,16.25,6.44,16.25,14.24v3.58
			c0,2.08-0.85,3.38-3.51,3.38h-16.9v1.24c0,3.06,1.69,4.23,4.23,4.23c2.79,0,4.29-1.17,5.2-2.34c0.91-1.3,1.56-1.69,3.64-0.71
			l4.49,1.95c1.75,0.84,2.21,1.95,1.24,3.77c-2.47,4.29-7.22,6.43-14.69,6.43C545.34,601.18,540.79,594.68,540.79,586.16z
			 M561.2,578.75v-0.84c0-2.6-1.24-3.9-4.16-3.9c-2.86,0-4.16,1.3-4.16,3.9v0.84H561.2z"/>
		<path class="st0" d="M582.39,585.71v-9.43h-2.86c-1.88,0-2.47-0.65-2.47-2.54v-4.88c0-1.82,0.58-2.47,2.47-2.47h2.86v-5.33
			c0-1.82,0.58-2.47,2.47-2.47h7.08c1.88,0,2.54,0.65,2.54,2.47v5.33h4.49c1.88,0,2.47,0.65,2.47,2.47v4.88
			c0,1.88-0.58,2.54-2.47,2.54h-4.49v8.58c0,3.58,1.24,4.55,4.42,4.55c1.95,0,2.54,0.65,2.54,2.54v5.59c0,1.95-0.58,2.67-2.54,2.67
			C587.53,600.2,582.39,596.63,582.39,585.71z"/>
		<path class="st0" d="M610.41,585.71v-9.43h-2.86c-1.88,0-2.47-0.65-2.47-2.54v-4.88c0-1.82,0.58-2.47,2.47-2.47h2.86v-5.33
			c0-1.82,0.58-2.47,2.47-2.47h7.08c1.88,0,2.54,0.65,2.54,2.47v5.33h4.49c1.88,0,2.47,0.65,2.47,2.47v4.88
			c0,1.88-0.58,2.54-2.47,2.54h-4.49v8.58c0,3.58,1.23,4.55,4.42,4.55c1.95,0,2.54,0.65,2.54,2.54v5.59c0,1.95-0.58,2.67-2.54,2.67
			C615.54,600.2,610.41,596.63,610.41,585.71z"/>
		<path class="st0" d="M634.39,586.16v-5.79c0-9.68,5.72-14.95,16.25-14.95c11.25,0,16.25,6.44,16.25,14.24v3.58
			c0,2.08-0.85,3.38-3.51,3.38h-16.9v1.24c0,3.06,1.69,4.23,4.22,4.23c2.8,0,4.29-1.17,5.2-2.34c0.91-1.3,1.56-1.69,3.64-0.71
			l4.49,1.95c1.75,0.84,2.21,1.95,1.23,3.77c-2.47,4.29-7.21,6.43-14.69,6.43C638.94,601.18,634.39,594.68,634.39,586.16z
			 M654.8,578.75v-0.84c0-2.6-1.24-3.9-4.16-3.9c-2.86,0-4.16,1.3-4.16,3.9v0.84H654.8z"/>
		<path class="st0" d="M672.87,597.73v-25.35c0-2.14,0.46-3.05,2.67-3.9c2.54-0.98,6.89-2.08,13.2-2.08h2.02
			c1.88,0,2.47,0.65,2.47,2.47v5.53c0,1.88-0.58,2.47-2.47,2.47h-2.47c-1.11,0-2.08,0.07-2.99,0.26c-0.26,0.07-0.33,0.26-0.33,0.46
			v20.15c0,1.82-0.65,2.47-2.54,2.47h-7.08C673.46,600.2,672.87,599.55,672.87,597.73z"/>
		<path class="st0" d="M692.83,597.54l14.95-41.21c0.65-1.88,1.56-2.27,3.38-2.27h7.41c1.82,0,2.73,0.46,3.38,2.14l15.02,41.34
			c0.65,1.75,0.06,2.67-1.88,2.67h-7.02c-3.32,0-4.36-0.71-4.88-2.73l-1.43-4.68h-14.17l-1.5,4.68c-0.58,2.02-1.5,2.73-4.68,2.73
			h-6.83C692.57,600.2,692.18,599.29,692.83,597.54z M718.76,582.59l-2.4-7.61c-1.3-4.42-1.43-9.17-1.43-9.17h-0.65
			c0,0,0.06,4.68-1.24,9.1l-2.41,7.67H718.76z"/>
		<path class="st0" d="M742.42,597.47v-40.69c0-2.01,0.65-2.73,2.73-2.73h19.05c8.97,0,14.37,4.35,14.37,12.29
			c0,4.36-1.37,7.28-4.68,9.56v0.26c4.16,1.82,6.57,5.53,6.57,11.18c0,8.38-6.83,12.87-15.99,12.87h-19.31
			C743.07,600.2,742.42,599.49,742.42,597.47z M761.53,571.6c2.6,0,4.03-0.97,4.03-3.51s-1.43-3.64-4.03-3.64h-6.3v7.15H761.53z
			 M762.77,589.74c2.79,0,4.22-1.17,4.22-3.9c0-2.6-1.43-3.77-4.22-3.77h-7.54v7.67H762.77z"/>
		<path class="st0" d="M787.08,597.47v-40.69c0-2.01,0.65-2.73,2.73-2.73h7.35c2.08,0,2.73,0.71,2.73,2.73v14.43l0.91,0.07h0.52
			l9.36-14.82c1.24-2.01,1.88-2.4,5.2-2.4h7.48c1.95,0,2.6,1.17,1.56,2.86l-11.83,18.79c1.56,1.24,2.79,2.86,3.96,5.07l8.58,16.25
			c0.91,1.76,0.46,3.19-1.69,3.19h-7.02c-3.45,0-4.62-0.46-5.72-2.73l-5.66-11.63c-1.04-2.15-2.02-3.32-4.49-3.32h-1.17v14.95
			c0,2.02-0.65,2.73-2.73,2.73h-7.35C787.72,600.2,787.08,599.49,787.08,597.47z"/>
	</g>
	<g>
		<path class="st1" d="M732.6,174.18h-66.82c-4.68,0-9.2,1.75-12.66,4.91l-27.99,25.55c-7.17,6.55-18.15,6.55-25.32,0l-27.99-25.55
			c-3.46-3.16-7.98-4.91-12.66-4.91h-66.82c-6.69,0-12.88,3.56-16.24,9.35l-36.93,63.61c-1.66,2.86-2.54,6.12-2.54,9.43v87.94
			c0,5.2,2.15,10.16,5.95,13.71l157.06,146.94c7.22,6.75,18.44,6.75,25.66,0l157.06-146.94c3.8-3.55,5.95-8.52,5.95-13.71v-87.94
			c0-3.31-0.88-6.56-2.54-9.43l-36.93-63.61C745.48,177.75,739.29,174.18,732.6,174.18z"/>
		<g>
			<polygon points="726.98,202.73 669.57,202.73 612.47,254.85 555.36,202.73 497.96,202.73 465.17,259.21 465.17,340.28 
				612.47,478.08 759.76,340.28 759.76,259.21 			"/>
			<polygon class="st2" points="726.98,202.73 669.57,202.73 612.47,254.85 555.36,202.73 497.96,202.73 465.17,259.21 
				465.17,340.28 612.47,478.08 759.76,340.28 759.76,259.21 			"/>
			<polygon class="st3" points="726.98,202.73 669.57,202.73 612.47,254.85 555.36,202.73 497.96,202.73 465.17,259.21 
				465.17,340.28 612.47,478.08 759.76,340.28 759.76,259.21 			"/>
			<path class="st3" d="M708.19,235.36l18.94,32.63v58.13L612.47,433.4L497.8,326.12v-58.13l18.94-32.63h25.97l47.76,43.59l22,20.08
				l22-20.08l47.76-43.59H708.19 M726.98,202.73h-57.41l-57.1,52.12l-57.1-52.12h-57.41l-32.78,56.47v81.07l147.29,137.8
				l147.29-137.8v-81.07L726.98,202.73L726.98,202.73z"/>
			<path class="st3" d="M708.19,235.36l18.94,32.63v58.13L612.47,433.4L497.8,326.12v-58.13l18.94-32.63h25.97l47.76,43.59l22,20.08
				l22-20.08l47.76-43.59H708.19 M726.98,202.73h-57.41l-57.1,52.12l-57.1-52.12h-57.41l-32.78,56.47v81.07l147.29,137.8
				l147.29-137.8v-81.07L726.98,202.73L726.98,202.73z"/>
			<g>
				<path class="st0" d="M732.6,174.18h-66.82c-4.68,0-9.2,1.75-12.66,4.91l-27.99,25.55c-7.17,6.55-18.15,6.55-25.32,0
					l-27.99-25.55c-3.46-3.16-7.98-4.91-12.66-4.91h-66.82c-6.69,0-12.88,3.56-16.24,9.35l-36.93,63.61
					c-1.66,2.86-2.54,6.12-2.54,9.43v87.94c0,5.2,2.15,10.16,5.95,13.71l157.06,146.94c7.22,6.75,18.44,6.75,25.66,0l157.06-146.94
					c3.8-3.55,5.95-8.52,5.95-13.71v-87.94c0-3.31-0.88-6.56-2.54-9.43l-36.93-63.61C745.48,177.75,739.29,174.18,732.6,174.18z
					 M727.96,204.42l17.26,29.74c1.33,2.28-0.35,5.14-2.99,5.1l-30.15-0.46c-1.19-0.02-2.29-0.66-2.88-1.69l-1.02-1.75h-0.62
					l-16.4-27.49c-1.35-2.26,0.28-5.13,2.91-5.13h30.93C726.23,202.73,727.35,203.38,727.96,204.42z M610.18,341.11
					c1.3,1.18,3.28,1.18,4.58,0l41.7-38.06l31.73-28.96c1.6-1.46,4.14-1.07,5.22,0.8l0.63,1.09c0.3,0.52,0.46,1.11,0.46,1.7v32.81
					c0,0.94-0.39,1.84-1.08,2.48l-78.64,73.57c-1.3,1.22-3.33,1.22-4.64,0l-78.64-73.57c-0.69-0.64-1.08-1.54-1.08-2.48v-32.81
					c0-0.6,0.16-1.19,0.46-1.7l0.63-1.09c1.09-1.87,3.62-2.26,5.22-0.8l31.73,28.96L610.18,341.11z M672.62,240.45
					c0.83,1.38,0.56,3.16-0.63,4.25l-37.53,34.26l0,0c-2.18,1.99-5.68,0.44-5.68-2.51v-34.98c0-0.95,0.4-1.86,1.11-2.51l24.02-21.93
					c1.59-1.45,4.1-1.08,5.2,0.77L672.62,240.45z M571.02,217.03l24.02,21.93c0.7,0.64,1.11,1.55,1.11,2.51v34.98
					c0,2.95-3.5,4.5-5.68,2.51l0,0l-37.53-34.26c-1.19-1.09-1.45-2.86-0.63-4.25l13.51-22.65
					C566.92,215.95,569.44,215.58,571.02,217.03z M499.91,202.73h30.93c2.63,0,4.26,2.87,2.91,5.13l-16.4,27.49h-0.62l-1.02,1.75
					c-0.6,1.03-1.69,1.67-2.88,1.69l-30.15,0.46c-2.64,0.04-4.31-2.81-2.99-5.1l17.26-29.74
					C497.58,203.38,498.7,202.73,499.91,202.73z M468.52,272.11l25.84-0.4c1.89-0.03,3.45,1.5,3.45,3.39v42.58
					c0,1.86-1.5,3.37-3.36,3.39l-25.84,0.29c-1.89,0.02-3.43-1.5-3.43-3.39V275.5C465.17,273.65,466.66,272.14,468.52,272.11z
					 M525.55,396.76l-39.66-37.11c-2.23-2.09-0.78-5.84,2.28-5.87l37.38-0.42c0.87-0.01,1.72,0.32,2.36,0.92l20.83,19.48
					c1.41,1.32,1.44,3.56,0.05,4.91l-18.54,18.04C528.93,397.98,526.87,398,525.55,396.76z M610.15,475.91l-55.78-52.19
					c-1.41-1.32-1.44-3.56-0.05-4.91l18.54-18.04c1.3-1.26,3.36-1.28,4.69-0.05l31.82,29.77l6.82,6.63
					c2.15,2.09,5.76,0.57,5.76-2.43v-8.68c0-0.94,0.39-1.84,1.08-2.48l74.02-69.25c0.64-0.6,1.48-0.93,2.36-0.92l37.38,0.42
					c3.06,0.03,4.52,3.78,2.28,5.87L728,369.99L614.78,475.91C613.48,477.13,611.45,477.13,610.15,475.91z M756.32,321.37
					l-25.84-0.29c-1.86-0.02-3.36-1.53-3.36-3.39v-42.58c0-1.89,1.55-3.42,3.45-3.39l25.84,0.4c1.85,0.03,3.34,1.54,3.34,3.39v42.48
					C759.76,319.87,758.21,321.39,756.32,321.37z"/>
				<polygon class="st0" points="720.36,377.14 728,369.99 728.55,369.48 				"/>
			</g>
			<polyline class="st4" points="533.63,271.25 568.47,303.05 612.47,343.2 656.46,303.05 691.3,271.25 694.5,276.77 694.5,311.97 
				612.47,388.72 530.43,311.97 530.43,276.77 533.63,271.25 			"/>
			<polygon class="st2" points="656.46,303.05 612.47,343.2 611.55,342.37 611.55,387.87 612.47,388.72 694.5,311.97 694.5,276.77 
				691.3,271.25 			"/>
			<polygon class="st4" points="497.8,271.66 497.8,321.05 465.17,321.41 465.17,272.16 			"/>
			<path class="st5" d="M610.15,475.91l-55.78-52.19c-1.41-1.32-1.44-3.56-0.05-4.91l18.54-18.04c1.3-1.26,3.36-1.28,4.69-0.05
				l31.82,29.77l6.82,6.63c2.15,2.09,5.76,0.57,5.76-2.43v-8.68c0-0.94,0.39-1.84,1.08-2.48l74.02-69.25
				c0.64-0.6,1.48-0.93,2.36-0.92l37.38,0.42c3.06,0.03,4.52,3.78,2.28,5.87L728,369.99L614.78,475.91
				C613.48,477.13,611.45,477.13,610.15,475.91z"/>
			<path class="st6" d="M571.02,217.03l24.02,21.93c0.7,0.64,1.11,1.55,1.11,2.51v34.98c0,2.95-3.5,4.5-5.68,2.51l0,0l-37.53-34.26
				c-1.19-1.09-1.45-2.86-0.63-4.25l13.51-22.65C566.92,215.95,569.44,215.58,571.02,217.03z"/>
			<path class="st7" d="M499.91,202.73h30.93c2.63,0,4.26,2.87,2.91,5.13l-16.4,27.49h-0.62l-1.02,1.75
				c-0.6,1.03-1.69,1.67-2.88,1.69l-30.15,0.46c-2.64,0.04-4.31-2.81-2.99-5.1l17.26-29.74
				C497.58,203.38,498.7,202.73,499.91,202.73z"/>
		</g>
	</g>
</g>
</svg>
