<?xml version="1.0" encoding="utf-8"?>
<!-- Generator: Adobe Illustrator 25.3.1, SVG Export Plug-In . SVG Version: 6.00 Build 0)  -->
<svg version="1.1" id="Layer_1" xmlns="http://www.w3.org/2000/svg" xmlns:xlink="http://www.w3.org/1999/xlink" x="0px" y="0px"
	 viewBox="0 0 1224 792" style="enable-background:new 0 0 1224 792;" xml:space="preserve">
<style type="text/css">
	.st0{fill:#FFFFFF;}
	.st1{fill:#53D2F9;}
	.st2{fill:#009AE4;}
	.st3{fill:#A0E4F9;}
	.st4{fill:#EB9AFC;}
	.st5{fill:#E2B639;}
	.st6{fill:#FCDB75;}
</style>
<g>
	<g>
		<path class="st0" d="M843.08,707.67l-223.1-96.34c-4.48-1.93-9.55-1.94-14.03-0.02l-225.07,96.46
			c-11.71,5.02-24.74-3.57-24.74-16.32V100.52c0-9.8,7.95-17.75,17.75-17.75h476.24c9.8,0,17.75,7.95,17.75,17.75v590.85
			C867.87,704.14,854.8,712.73,843.08,707.67z"/>
	</g>
	<g>
		<g>
			<polygon points="726.51,173.92 669.1,173.92 612,226.04 554.9,173.92 497.49,173.92 464.71,230.39 464.71,311.46 612,449.26 
				759.29,311.46 759.29,230.39 			"/>
			<polygon class="st0" points="726.51,173.92 669.1,173.92 612,226.04 554.9,173.92 497.49,173.92 464.71,230.39 464.71,311.46 
				612,449.26 759.29,311.46 759.29,230.39 			"/>
			<polygon class="st1" points="726.51,173.92 669.1,173.92 612,226.04 554.9,173.92 497.49,173.92 464.71,230.39 464.71,311.46 
				612,449.26 759.29,311.46 759.29,230.39 			"/>
			<path class="st1" d="M707.72,206.54l18.94,32.63v58.13L612,404.58L497.34,297.31v-58.13l18.94-32.63h25.97L590,250.14l22,20.08
				l22-20.08l47.76-43.59H707.72 M726.51,173.92H669.1L612,226.04l-57.1-52.12h-57.41l-32.78,56.47v81.07L612,449.26l147.29-137.8
				v-81.07L726.51,173.92L726.51,173.92z"/>
			<path class="st1" d="M707.72,206.54l18.94,32.63v58.13L612,404.58L497.34,297.31v-58.13l18.94-32.63h25.97L590,250.14l22,20.08
				l22-20.08l47.76-43.59H707.72 M726.51,173.92H669.1L612,226.04l-57.1-52.12h-57.41l-32.78,56.47v81.07L612,449.26l147.29-137.8
				v-81.07L726.51,173.92L726.51,173.92z"/>
			<g>
				<path class="st2" d="M732.13,145.37h-66.82c-4.68,0-9.2,1.75-12.66,4.91l-27.99,25.55c-7.17,6.55-18.15,6.55-25.32,0
					l-27.99-25.55c-3.46-3.16-7.98-4.91-12.66-4.91h-66.82c-6.69,0-12.88,3.56-16.24,9.35l-36.93,63.61
					c-1.66,2.86-2.54,6.12-2.54,9.43v87.94c0,5.2,2.15,10.16,5.95,13.71l157.06,146.94c7.22,6.75,18.44,6.75,25.66,0l157.06-146.94
					c3.8-3.55,5.95-8.52,5.95-13.71v-87.94c0-3.31-0.88-6.56-2.54-9.43l-36.93-63.61C745.02,148.93,738.83,145.37,732.13,145.37z
					 M727.49,175.61l17.26,29.74c1.33,2.28-0.35,5.14-2.99,5.1l-30.15-0.46c-1.19-0.02-2.29-0.66-2.88-1.69l-1.02-1.75h-0.62
					l-16.4-27.49c-1.35-2.26,0.28-5.13,2.91-5.13h30.93C725.77,173.92,726.88,174.56,727.49,175.61z M609.71,312.3
					c1.3,1.18,3.28,1.18,4.58,0l41.7-38.06l31.73-28.96c1.6-1.46,4.14-1.07,5.22,0.8l0.63,1.09c0.3,0.52,0.46,1.11,0.46,1.7v32.81
					c0,0.94-0.39,1.84-1.08,2.48l-78.64,73.57c-1.3,1.22-3.33,1.22-4.64,0l-78.64-73.57c-0.69-0.64-1.08-1.54-1.08-2.48v-32.81
					c0-0.6,0.16-1.19,0.46-1.7l0.63-1.09c1.09-1.87,3.62-2.26,5.22-0.8l31.73,28.96L609.71,312.3z M672.15,211.63
					c0.83,1.38,0.56,3.16-0.63,4.25L634,250.14l0,0c-2.18,1.99-5.68,0.44-5.68-2.51v-34.98c0-0.95,0.4-1.86,1.11-2.51l24.02-21.93
					c1.59-1.45,4.1-1.08,5.2,0.77L672.15,211.63z M570.56,188.21l24.02,21.93c0.7,0.64,1.11,1.55,1.11,2.51v34.98
					c0,2.95-3.5,4.5-5.68,2.51l0,0l-37.53-34.26c-1.19-1.09-1.45-2.86-0.63-4.25l13.51-22.65
					C566.46,187.13,568.97,186.76,570.56,188.21z M499.44,173.92h30.93c2.63,0,4.26,2.87,2.91,5.13l-16.4,27.49h-0.62l-1.02,1.75
					c-0.6,1.03-1.69,1.67-2.88,1.69l-30.15,0.46c-2.64,0.04-4.31-2.81-2.99-5.1l17.26-29.74
					C497.12,174.56,498.23,173.92,499.44,173.92z M468.05,243.29l25.84-0.4c1.89-0.03,3.45,1.5,3.45,3.39v42.58
					c0,1.86-1.5,3.37-3.36,3.39l-25.84,0.29c-1.89,0.02-3.43-1.5-3.43-3.39v-42.48C464.71,244.83,466.2,243.32,468.05,243.29z
					 M525.08,367.95l-39.66-37.11c-2.23-2.09-0.78-5.84,2.28-5.87l37.38-0.42c0.87-0.01,1.72,0.32,2.36,0.92l20.83,19.48
					c1.41,1.32,1.44,3.56,0.05,4.91l-18.54,18.04C528.47,369.16,526.41,369.18,525.08,367.95z M609.68,447.09L553.9,394.9
					c-1.41-1.32-1.44-3.56-0.05-4.91l18.54-18.04c1.3-1.26,3.36-1.28,4.69-0.05l31.82,29.77l6.82,6.63
					c2.15,2.09,5.76,0.57,5.76-2.43v-8.68c0-0.94,0.39-1.84,1.08-2.48l74.02-69.25c0.64-0.6,1.48-0.93,2.36-0.92l37.38,0.42
					c3.06,0.03,4.52,3.78,2.28,5.87l-11.05,10.34L614.32,447.09C613.01,448.31,610.99,448.31,609.68,447.09z M755.86,292.56
					l-25.84-0.29c-1.86-0.02-3.36-1.53-3.36-3.39v-42.58c0-1.89,1.55-3.42,3.45-3.39l25.84,0.4c1.85,0.03,3.34,1.54,3.34,3.39v42.48
					C759.29,291.05,757.75,292.58,755.86,292.56z"/>
				<polygon class="st2" points="719.89,348.32 727.53,341.18 728.08,340.66 				"/>
			</g>
			<polyline class="st3" points="533.17,242.43 568.01,274.23 612,314.39 655.99,274.23 690.83,242.43 694.04,247.96 694.04,283.15 
				612,359.9 529.96,283.15 529.96,247.96 533.17,242.43 			"/>
			<polygon class="st0" points="655.99,274.23 612,314.39 611.09,313.55 611.09,359.05 612,359.9 694.04,283.15 694.04,247.96 
				690.83,242.43 			"/>
			<polygon class="st3" points="497.34,242.84 497.34,292.23 464.71,292.6 464.71,243.35 			"/>
			<path class="st4" d="M609.68,447.09L553.9,394.9c-1.41-1.32-1.44-3.56-0.05-4.91l18.54-18.04c1.3-1.26,3.36-1.28,4.69-0.05
				l31.82,29.77l6.82,6.63c2.15,2.09,5.76,0.57,5.76-2.43v-8.68c0-0.94,0.39-1.84,1.08-2.48l74.02-69.25
				c0.64-0.6,1.48-0.93,2.36-0.92l37.38,0.42c3.06,0.03,4.52,3.78,2.28,5.87l-11.05,10.34L614.32,447.09
				C613.01,448.31,610.99,448.31,609.68,447.09z"/>
			<path class="st5" d="M570.56,188.21l24.02,21.93c0.7,0.64,1.11,1.55,1.11,2.51v34.98c0,2.95-3.5,4.5-5.68,2.51l0,0l-37.53-34.26
				c-1.19-1.09-1.45-2.86-0.63-4.25l13.51-22.65C566.46,187.13,568.97,186.76,570.56,188.21z"/>
			<path class="st6" d="M499.44,173.92h30.93c2.63,0,4.26,2.87,2.91,5.13l-16.4,27.49h-0.62l-1.02,1.75
				c-0.6,1.03-1.69,1.67-2.88,1.69l-30.15,0.46c-2.64,0.04-4.31-2.81-2.99-5.1l17.26-29.74
				C497.12,174.56,498.23,173.92,499.44,173.92z"/>
		</g>
		<rect x="400.03" y="501" class="st0" width="423.93" height="72.66"/>
		<g>
			<path class="st2" d="M401.04,568.92l1.75-6.04h-3.83c-1.82,0-2.28-0.65-1.82-2.47l1.69-5.4c0.52-1.75,1.37-2.28,3.32-2.28h3.71
				l1.89-6.3h-3.84c-1.88,0-2.47-0.65-1.88-2.41l1.69-5.4c0.52-1.82,1.36-2.27,3.25-2.27h3.77l1.82-6.24
				c0.52-1.76,1.37-2.47,3.19-2.47h5.92c1.89,0,2.34,0.71,1.82,2.47l-1.82,6.24h5.72l1.82-6.24c0.58-1.76,1.3-2.47,3.19-2.47h5.92
				c1.89,0,2.34,0.71,1.82,2.47l-1.89,6.24h3.84c1.88,0,2.27,0.58,1.82,2.4l-1.56,5.4c-0.52,1.69-1.5,2.28-3.31,2.28h-3.77
				l-1.88,6.3h3.9c1.89,0,2.41,0.65,1.89,2.41l-1.75,5.4c-0.52,1.75-1.37,2.34-3.32,2.34h-3.77l-1.75,6.04
				c-0.52,1.76-1.3,2.47-3.19,2.47h-5.92c-1.89,0-2.34-0.71-1.82-2.47l1.82-6.04h-5.72l-1.82,6.04c-0.52,1.76-1.3,2.47-3.19,2.47
				h-5.92C400.97,571.39,400.45,570.67,401.04,568.92z M422.42,552.73l1.95-6.3h-5.79l-1.88,6.3H422.42z"/>
			<path class="st2" d="M447.64,568.72l14.95-41.21c0.65-1.88,1.56-2.28,3.38-2.28h7.41c1.82,0,2.73,0.46,3.38,2.15l15.02,41.34
				c0.65,1.75,0.06,2.67-1.89,2.67h-7.02c-3.32,0-4.36-0.71-4.88-2.73l-1.43-4.68H462.4l-1.5,4.68c-0.58,2.02-1.5,2.73-4.68,2.73
				h-6.83C447.38,571.39,446.99,570.48,447.64,568.72z M473.58,553.77l-2.41-7.6c-1.3-4.42-1.43-9.17-1.43-9.17h-0.65
				c0,0,0.06,4.68-1.23,9.1l-2.41,7.67H473.58z"/>
			<path class="st2" d="M497.24,568.66v-40.69c0-2.01,0.65-2.73,2.73-2.73h19.05c8.97,0,14.37,4.36,14.37,12.29
				c0,4.35-1.36,7.28-4.68,9.55v0.26c4.16,1.82,6.57,5.52,6.57,11.18c0,8.39-6.83,12.87-15.99,12.87h-19.31
				C497.89,571.39,497.24,570.67,497.24,568.66z M516.35,542.79c2.6,0,4.03-0.97,4.03-3.51s-1.43-3.64-4.03-3.64h-6.31v7.15H516.35z
				 M517.58,560.92c2.79,0,4.23-1.17,4.23-3.9c0-2.6-1.43-3.77-4.23-3.77h-7.54v7.67H517.58z"/>
			<path class="st2" d="M540.33,557.35v-5.79c0-9.69,5.72-14.95,16.25-14.95c11.25,0,16.25,6.44,16.25,14.24v3.58
				c0,2.08-0.85,3.38-3.51,3.38h-16.9v1.24c0,3.05,1.69,4.22,4.23,4.22c2.79,0,4.29-1.17,5.2-2.34c0.91-1.3,1.56-1.69,3.64-0.71
				l4.49,1.95c1.75,0.84,2.21,1.95,1.23,3.77c-2.47,4.29-7.22,6.43-14.69,6.43C544.88,572.36,540.33,565.86,540.33,557.35z
				 M560.74,549.94v-0.84c0-2.6-1.24-3.9-4.16-3.9c-2.86,0-4.16,1.3-4.16,3.9v0.84H560.74z"/>
			<path class="st2" d="M581.93,556.89v-9.42h-2.86c-1.89,0-2.47-0.65-2.47-2.54v-4.88c0-1.82,0.58-2.47,2.47-2.47h2.86v-5.33
				c0-1.82,0.58-2.47,2.47-2.47h7.09c1.88,0,2.54,0.65,2.54,2.47v5.33h4.48c1.89,0,2.47,0.65,2.47,2.47v4.88
				c0,1.88-0.58,2.54-2.47,2.54h-4.48v8.58c0,3.58,1.23,4.55,4.42,4.55c1.95,0,2.54,0.65,2.54,2.54v5.59c0,1.95-0.58,2.67-2.54,2.67
				C587.07,571.39,581.93,567.81,581.93,556.89z"/>
			<path class="st2" d="M609.94,556.89v-9.42h-2.86c-1.89,0-2.47-0.65-2.47-2.54v-4.88c0-1.82,0.58-2.47,2.47-2.47h2.86v-5.33
				c0-1.82,0.58-2.47,2.47-2.47h7.08c1.88,0,2.54,0.65,2.54,2.47v5.33h4.49c1.89,0,2.47,0.65,2.47,2.47v4.88
				c0,1.88-0.58,2.54-2.47,2.54h-4.49v8.58c0,3.58,1.24,4.55,4.42,4.55c1.95,0,2.54,0.65,2.54,2.54v5.59c0,1.95-0.58,2.67-2.54,2.67
				C615.08,571.39,609.94,567.81,609.94,556.89z"/>
			<path class="st2" d="M633.93,557.35v-5.79c0-9.69,5.72-14.95,16.25-14.95c11.25,0,16.25,6.44,16.25,14.24v3.58
				c0,2.08-0.84,3.38-3.51,3.38h-16.9v1.24c0,3.05,1.69,4.22,4.22,4.22c2.79,0,4.29-1.17,5.2-2.34c0.91-1.3,1.56-1.69,3.64-0.71
				l4.49,1.95c1.75,0.84,2.21,1.95,1.23,3.77c-2.47,4.29-7.21,6.43-14.69,6.43C638.48,572.36,633.93,565.86,633.93,557.35z
				 M654.34,549.94v-0.84c0-2.6-1.23-3.9-4.16-3.9c-2.86,0-4.16,1.3-4.16,3.9v0.84H654.34z"/>
			<path class="st2" d="M672.41,568.92v-25.35c0-2.15,0.46-3.05,2.67-3.9c2.54-0.97,6.89-2.08,13.2-2.08h2.02
				c1.88,0,2.47,0.65,2.47,2.47v5.52c0,1.89-0.58,2.47-2.47,2.47h-2.47c-1.11,0-2.08,0.06-2.99,0.26c-0.26,0.07-0.32,0.26-0.32,0.46
				v20.15c0,1.82-0.65,2.47-2.54,2.47h-7.09C672.99,571.39,672.41,570.74,672.41,568.92z"/>
			<path class="st2" d="M692.36,568.72l14.95-41.21c0.65-1.88,1.56-2.28,3.38-2.28h7.41c1.82,0,2.73,0.46,3.38,2.15l15.01,41.34
				c0.65,1.75,0.07,2.67-1.88,2.67h-7.02c-3.32,0-4.36-0.71-4.88-2.73l-1.43-4.68h-14.17l-1.49,4.68c-0.59,2.02-1.5,2.73-4.68,2.73
				h-6.83C692.1,571.39,691.71,570.48,692.36,568.72z M718.3,553.77l-2.41-7.6c-1.3-4.42-1.43-9.17-1.43-9.17h-0.65
				c0,0,0.07,4.68-1.23,9.1l-2.41,7.67H718.3z"/>
			<path class="st2" d="M741.96,568.66v-40.69c0-2.01,0.65-2.73,2.73-2.73h19.05c8.97,0,14.37,4.36,14.37,12.29
				c0,4.35-1.37,7.28-4.68,9.55v0.26c4.16,1.82,6.56,5.52,6.56,11.18c0,8.39-6.82,12.87-15.99,12.87h-19.31
				C742.61,571.39,741.96,570.67,741.96,568.66z M761.07,542.79c2.6,0,4.03-0.97,4.03-3.51s-1.43-3.64-4.03-3.64h-6.3v7.15H761.07z
				 M762.3,560.92c2.79,0,4.22-1.17,4.22-3.9c0-2.6-1.43-3.77-4.22-3.77h-7.54v7.67H762.3z"/>
			<path class="st2" d="M786.61,568.66v-40.69c0-2.01,0.65-2.73,2.73-2.73h7.35c2.08,0,2.73,0.72,2.73,2.73v14.43l0.91,0.06h0.52
				l9.36-14.82c1.23-2.01,1.88-2.41,5.2-2.41h7.48c1.95,0,2.6,1.17,1.56,2.86l-11.83,18.79c1.56,1.23,2.79,2.86,3.96,5.07
				l8.58,16.25c0.91,1.75,0.46,3.19-1.69,3.19h-7.02c-3.45,0-4.62-0.46-5.72-2.73l-5.65-11.64c-1.04-2.14-2.02-3.31-4.49-3.31h-1.17
				v14.95c0,2.02-0.65,2.73-2.73,2.73h-7.35C787.26,571.39,786.61,570.67,786.61,568.66z"/>
		</g>
	</g>
</g>
</svg>
