<?xml version="1.0" encoding="utf-8"?>
<!-- Generator: Adobe Illustrator 25.3.1, SVG Export Plug-In . SVG Version: 6.00 Build 0)  -->
<svg version="1.1" id="Layer_1" xmlns="http://www.w3.org/2000/svg" xmlns:xlink="http://www.w3.org/1999/xlink" x="0px" y="0px"
	 viewBox="0 0 1224 792" style="enable-background:new 0 0 1224 792;" xml:space="preserve">
<style type="text/css">
	.st0{fill:#FFFFFF;stroke:#FFFFFF;stroke-width:20;stroke-miterlimit:10;}
	.st1{fill:#FFFFFF;}
	.st2{fill:#53D2F9;}
	.st3{fill:#009AE4;}
	.st4{fill:#A0E4F9;}
	.st5{fill:#EB9AFC;}
	.st6{fill:#E2B639;}
	.st7{fill:#FCDB75;}
</style>
<g>
	<path class="st0" d="M732.13,227.98h-66.82c-4.68,0-9.2,1.75-12.66,4.91l-27.99,25.55c-7.17,6.55-18.15,6.55-25.32,0l-27.99-25.55
		c-3.46-3.16-7.98-4.91-12.66-4.91h-66.82c-6.69,0-12.88,3.56-16.24,9.35l-36.93,63.61c-1.66,2.86-2.54,6.12-2.54,9.43v87.94
		c0,5.2,2.15,10.16,5.95,13.71l157.06,146.94c7.22,6.75,18.44,6.75,25.66,0l157.06-146.94c3.8-3.55,5.95-8.52,5.95-13.71v-87.94
		c0-3.31-0.88-6.56-2.54-9.43l-36.93-63.61C745.02,231.54,738.83,227.98,732.13,227.98z"/>
	<g>
		<polygon points="726.51,256.52 669.1,256.52 612,308.64 554.9,256.52 497.49,256.52 464.71,313 464.71,394.07 612,531.87 
			759.29,394.07 759.29,313 		"/>
		<polygon class="st1" points="726.51,256.52 669.1,256.52 612,308.64 554.9,256.52 497.49,256.52 464.71,313 464.71,394.07 
			612,531.87 759.29,394.07 759.29,313 		"/>
		<polygon class="st2" points="726.51,256.52 669.1,256.52 612,308.64 554.9,256.52 497.49,256.52 464.71,313 464.71,394.07 
			612,531.87 759.29,394.07 759.29,313 		"/>
		<path class="st2" d="M707.72,289.15l18.94,32.63v58.13L612,487.19L497.34,379.92v-58.13l18.94-32.63h25.97L590,332.74l22,20.08
			l22-20.08l47.76-43.59H707.72 M726.51,256.52H669.1L612,308.64l-57.1-52.12h-57.41L464.71,313v81.07L612,531.87l147.29-137.8V313
			L726.51,256.52L726.51,256.52z"/>
		<path class="st2" d="M707.72,289.15l18.94,32.63v58.13L612,487.19L497.34,379.92v-58.13l18.94-32.63h25.97L590,332.74l22,20.08
			l22-20.08l47.76-43.59H707.72 M726.51,256.52H669.1L612,308.64l-57.1-52.12h-57.41L464.71,313v81.07L612,531.87l147.29-137.8V313
			L726.51,256.52L726.51,256.52z"/>
		<g>
			<path class="st3" d="M732.13,227.98h-66.82c-4.68,0-9.2,1.75-12.66,4.91l-27.99,25.55c-7.17,6.55-18.15,6.55-25.32,0
				l-27.99-25.55c-3.46-3.16-7.98-4.91-12.66-4.91h-66.82c-6.69,0-12.88,3.56-16.24,9.35l-36.93,63.61
				c-1.66,2.86-2.54,6.12-2.54,9.43v87.94c0,5.2,2.15,10.16,5.95,13.71l157.06,146.94c7.22,6.75,18.44,6.75,25.66,0l157.06-146.94
				c3.8-3.55,5.95-8.52,5.95-13.71v-87.94c0-3.31-0.88-6.56-2.54-9.43l-36.93-63.61C745.02,231.54,738.83,227.98,732.13,227.98z
				 M727.49,258.21l17.26,29.74c1.33,2.28-0.35,5.14-2.99,5.1l-30.15-0.46c-1.19-0.02-2.29-0.66-2.88-1.69l-1.02-1.75h-0.62
				l-16.4-27.49c-1.35-2.26,0.28-5.13,2.91-5.13h30.93C725.77,256.52,726.88,257.17,727.49,258.21z M609.71,394.9
				c1.3,1.18,3.28,1.18,4.58,0l41.7-38.06l31.73-28.96c1.6-1.46,4.14-1.07,5.22,0.8l0.63,1.09c0.3,0.52,0.46,1.11,0.46,1.7v32.81
				c0,0.94-0.39,1.84-1.08,2.48l-78.64,73.57c-1.3,1.22-3.33,1.22-4.64,0l-78.64-73.57c-0.69-0.64-1.08-1.54-1.08-2.48v-32.81
				c0-0.6,0.16-1.19,0.46-1.7l0.63-1.09c1.09-1.87,3.62-2.26,5.22-0.8l31.73,28.96L609.71,394.9z M672.15,294.24
				c0.83,1.38,0.56,3.16-0.63,4.25L634,332.74l0,0c-2.18,1.99-5.68,0.44-5.68-2.51v-34.98c0-0.95,0.4-1.86,1.11-2.51l24.02-21.93
				c1.59-1.45,4.1-1.08,5.2,0.77L672.15,294.24z M570.56,270.82l24.02,21.93c0.7,0.64,1.11,1.55,1.11,2.51v34.98
				c0,2.95-3.5,4.5-5.68,2.51l0,0l-37.53-34.26c-1.19-1.09-1.45-2.86-0.63-4.25l13.51-22.65
				C566.46,269.74,568.97,269.37,570.56,270.82z M499.44,256.52h30.93c2.63,0,4.26,2.87,2.91,5.13l-16.4,27.49h-0.62l-1.02,1.75
				c-0.6,1.03-1.69,1.67-2.88,1.69l-30.15,0.46c-2.64,0.04-4.31-2.81-2.99-5.1l17.26-29.74
				C497.12,257.17,498.23,256.52,499.44,256.52z M468.05,325.9l25.84-0.4c1.89-0.03,3.45,1.5,3.45,3.39v42.58
				c0,1.86-1.5,3.37-3.36,3.39l-25.84,0.29c-1.89,0.02-3.43-1.5-3.43-3.39V329.3C464.71,327.44,466.2,325.93,468.05,325.9z
				 M525.08,450.55l-39.66-37.11c-2.23-2.09-0.78-5.84,2.28-5.87l37.38-0.42c0.87-0.01,1.72,0.32,2.36,0.92l20.83,19.48
				c1.41,1.32,1.44,3.56,0.05,4.91l-18.54,18.04C528.47,451.77,526.41,451.79,525.08,450.55z M609.68,529.7l-55.78-52.19
				c-1.41-1.32-1.44-3.56-0.05-4.91l18.54-18.04c1.3-1.26,3.36-1.28,4.69-0.05l31.82,29.77l6.82,6.63c2.15,2.09,5.76,0.57,5.76-2.43
				v-8.68c0-0.94,0.39-1.84,1.08-2.48l74.02-69.25c0.64-0.6,1.48-0.93,2.36-0.92l37.38,0.42c3.06,0.03,4.52,3.78,2.28,5.87
				l-11.05,10.34L614.32,529.7C613.01,530.92,610.99,530.92,609.68,529.7z M755.86,375.16l-25.84-0.29
				c-1.86-0.02-3.36-1.53-3.36-3.39V328.9c0-1.89,1.55-3.42,3.45-3.39l25.84,0.4c1.85,0.03,3.34,1.54,3.34,3.39v42.48
				C759.29,373.66,757.75,375.19,755.86,375.16z"/>
			<polygon class="st3" points="719.89,430.93 727.53,423.78 728.08,423.27 			"/>
		</g>
		<polyline class="st4" points="533.17,325.04 568.01,356.84 612,396.99 655.99,356.84 690.83,325.04 694.04,330.56 694.04,365.76 
			612,442.51 529.96,365.76 529.96,330.56 533.17,325.04 		"/>
		<polygon class="st1" points="655.99,356.84 612,396.99 611.09,396.16 611.09,441.66 612,442.51 694.04,365.76 694.04,330.56 
			690.83,325.04 		"/>
		<polygon class="st4" points="497.34,325.45 497.34,374.84 464.71,375.2 464.71,325.95 		"/>
		<path class="st5" d="M609.68,529.7l-55.78-52.19c-1.41-1.32-1.44-3.56-0.05-4.91l18.54-18.04c1.3-1.26,3.36-1.28,4.69-0.05
			l31.82,29.77l6.82,6.63c2.15,2.09,5.76,0.57,5.76-2.43v-8.68c0-0.94,0.39-1.84,1.08-2.48l74.02-69.25
			c0.64-0.6,1.48-0.93,2.36-0.92l37.38,0.42c3.06,0.03,4.52,3.78,2.28,5.87l-11.05,10.34L614.32,529.7
			C613.01,530.92,610.99,530.92,609.68,529.7z"/>
		<path class="st6" d="M570.56,270.82l24.02,21.93c0.7,0.64,1.11,1.55,1.11,2.51v34.98c0,2.95-3.5,4.5-5.68,2.51l0,0l-37.53-34.26
			c-1.19-1.09-1.45-2.86-0.63-4.25l13.51-22.65C566.46,269.74,568.97,269.37,570.56,270.82z"/>
		<path class="st7" d="M499.44,256.52h30.93c2.63,0,4.26,2.87,2.91,5.13l-16.4,27.49h-0.62l-1.02,1.75
			c-0.6,1.03-1.69,1.67-2.88,1.69l-30.15,0.46c-2.64,0.04-4.31-2.81-2.99-5.1l17.26-29.74
			C497.12,257.17,498.23,256.52,499.44,256.52z"/>
	</g>
</g>
</svg>
