<?xml version="1.0" encoding="utf-8"?>
<!-- Generator: Adobe Illustrator 25.3.1, SVG Export Plug-In . SVG Version: 6.00 Build 0)  -->
<svg version="1.1" id="Layer_1" xmlns="http://www.w3.org/2000/svg" xmlns:xlink="http://www.w3.org/1999/xlink" x="0px" y="0px"
	 viewBox="0 0 1224 792" style="enable-background:new 0 0 1224 792;" xml:space="preserve">
<style type="text/css">
	.st0{fill:#FFFFFF;}
	.st1{fill:#53D2F9;}
	.st2{fill:#009AE4;}
	.st3{fill:#A0E4F9;}
	.st4{fill:#EB9AFC;}
	.st5{fill:#E2B639;}
	.st6{fill:#FCDB75;}
</style>
<g>
	<g>
		<polygon points="726.51,156.16 669.1,156.16 612,208.28 554.9,156.16 497.49,156.16 464.71,212.63 464.71,293.71 612,431.5 
			759.29,293.71 759.29,212.63 		"/>
		<polygon class="st0" points="726.51,156.16 669.1,156.16 612,208.28 554.9,156.16 497.49,156.16 464.71,212.63 464.71,293.71 
			612,431.5 759.29,293.71 759.29,212.63 		"/>
		<polygon class="st1" points="726.51,156.16 669.1,156.16 612,208.28 554.9,156.16 497.49,156.16 464.71,212.63 464.71,293.71 
			612,431.5 759.29,293.71 759.29,212.63 		"/>
		<path class="st1" d="M707.72,188.79l18.94,32.63v58.13L612,386.82L497.34,279.55v-58.13l18.94-32.63h25.97l47.76,43.59l22,20.08
			l22-20.08l47.76-43.59H707.72 M726.51,156.16H669.1L612,208.28l-57.1-52.12h-57.41l-32.78,56.47v81.07L612,431.5l147.29-137.8
			v-81.07L726.51,156.16L726.51,156.16z"/>
		<path class="st1" d="M707.72,188.79l18.94,32.63v58.13L612,386.82L497.34,279.55v-58.13l18.94-32.63h25.97l47.76,43.59l22,20.08
			l22-20.08l47.76-43.59H707.72 M726.51,156.16H669.1L612,208.28l-57.1-52.12h-57.41l-32.78,56.47v81.07L612,431.5l147.29-137.8
			v-81.07L726.51,156.16L726.51,156.16z"/>
		<g>
			<path class="st2" d="M732.13,127.61h-66.82c-4.68,0-9.2,1.75-12.66,4.91l-27.99,25.55c-7.17,6.55-18.15,6.55-25.32,0
				l-27.99-25.55c-3.46-3.16-7.98-4.91-12.66-4.91h-66.82c-6.69,0-12.88,3.56-16.24,9.35l-36.93,63.61
				c-1.66,2.86-2.54,6.12-2.54,9.43v87.94c0,5.2,2.15,10.16,5.95,13.71l157.06,146.94c7.22,6.75,18.44,6.75,25.66,0l157.06-146.94
				c3.8-3.55,5.95-8.52,5.95-13.71V210c0-3.31-0.88-6.56-2.54-9.43l-36.93-63.61C745.02,131.17,738.83,127.61,732.13,127.61z
				 M727.49,157.85l17.26,29.74c1.33,2.28-0.35,5.14-2.99,5.1l-30.15-0.46c-1.19-0.02-2.29-0.66-2.88-1.69l-1.02-1.75h-0.62
				l-16.4-27.49c-1.35-2.26,0.28-5.13,2.91-5.13h30.93C725.77,156.16,726.88,156.8,727.49,157.85z M609.71,294.54
				c1.3,1.18,3.28,1.18,4.58,0l41.7-38.06l31.73-28.96c1.6-1.46,4.14-1.07,5.22,0.8l0.63,1.09c0.3,0.52,0.46,1.11,0.46,1.7v32.81
				c0,0.94-0.39,1.84-1.08,2.48l-78.64,73.57c-1.3,1.22-3.33,1.22-4.64,0l-78.64-73.57c-0.69-0.64-1.08-1.54-1.08-2.48v-32.81
				c0-0.6,0.16-1.19,0.46-1.7l0.63-1.09c1.09-1.87,3.62-2.26,5.22-0.8l31.73,28.96L609.71,294.54z M672.16,193.87
				c0.83,1.38,0.56,3.16-0.63,4.25L634,232.38l0,0c-2.18,1.99-5.68,0.44-5.68-2.51v-34.98c0-0.95,0.4-1.86,1.11-2.51l24.02-21.93
				c1.59-1.45,4.1-1.08,5.2,0.77L672.16,193.87z M570.56,170.45l24.02,21.93c0.7,0.64,1.11,1.55,1.11,2.51v34.98
				c0,2.95-3.5,4.5-5.68,2.51v0l-37.53-34.26c-1.19-1.09-1.45-2.86-0.63-4.25l13.51-22.65
				C566.46,169.38,568.97,169.01,570.56,170.45z M499.44,156.16h30.93c2.63,0,4.26,2.87,2.91,5.13l-16.4,27.49h-0.62l-1.02,1.75
				c-0.6,1.03-1.69,1.67-2.88,1.69l-30.15,0.46c-2.64,0.04-4.31-2.81-2.99-5.1l17.26-29.74
				C497.12,156.8,498.23,156.16,499.44,156.16z M468.05,225.54l25.84-0.4c1.89-0.03,3.45,1.5,3.45,3.39v42.58
				c0,1.86-1.5,3.37-3.36,3.39l-25.84,0.29c-1.89,0.02-3.43-1.5-3.43-3.39v-42.48C464.71,227.08,466.2,225.56,468.05,225.54z
				 M525.08,350.19l-39.66-37.11c-2.23-2.09-0.78-5.84,2.28-5.87l37.38-0.42c0.87-0.01,1.72,0.32,2.36,0.92l20.83,19.48
				c1.41,1.32,1.44,3.56,0.05,4.91l-18.54,18.04C528.47,351.41,526.41,351.43,525.08,350.19z M609.68,429.33l-55.78-52.19
				c-1.41-1.32-1.44-3.56-0.05-4.91l18.54-18.04c1.3-1.26,3.36-1.28,4.69-0.05l31.82,29.77l6.82,6.63c2.15,2.09,5.76,0.57,5.76-2.43
				v-8.68c0-0.94,0.39-1.84,1.08-2.48l74.02-69.25c0.64-0.6,1.48-0.93,2.36-0.92l37.38,0.42c3.06,0.03,4.52,3.78,2.28,5.87
				l-11.05,10.34L614.32,429.33C613.01,430.55,610.99,430.55,609.68,429.33z M755.86,274.8l-25.84-0.29
				c-1.86-0.02-3.36-1.53-3.36-3.39v-42.58c0-1.89,1.55-3.42,3.45-3.39l25.84,0.4c1.85,0.03,3.34,1.54,3.34,3.39v42.48
				C759.29,273.29,757.75,274.82,755.86,274.8z"/>
			<polygon class="st2" points="719.89,330.56 727.53,323.42 728.08,322.9 			"/>
		</g>
		<polyline class="st3" points="533.17,224.68 568.01,256.48 612,296.63 655.99,256.48 690.83,224.68 694.04,230.2 694.04,265.39 
			612,342.14 529.96,265.39 529.96,230.2 533.17,224.68 		"/>
		<polygon class="st0" points="655.99,256.48 612,296.63 611.09,295.8 611.09,341.29 612,342.14 694.04,265.39 694.04,230.2 
			690.83,224.68 		"/>
		<polygon class="st3" points="497.34,225.09 497.34,274.47 464.71,274.84 464.71,225.59 		"/>
		<path class="st4" d="M609.68,429.33l-55.78-52.19c-1.41-1.32-1.44-3.56-0.05-4.91l18.54-18.04c1.3-1.26,3.36-1.28,4.69-0.05
			l31.82,29.77l6.82,6.63c2.15,2.09,5.76,0.57,5.76-2.43v-8.68c0-0.94,0.39-1.84,1.08-2.48l74.02-69.25
			c0.64-0.6,1.48-0.93,2.36-0.92l37.38,0.42c3.06,0.03,4.52,3.78,2.28,5.87l-11.05,10.34L614.32,429.33
			C613.01,430.55,610.99,430.55,609.68,429.33z"/>
		<path class="st5" d="M570.56,170.45l24.02,21.93c0.7,0.64,1.11,1.55,1.11,2.51v34.98c0,2.95-3.5,4.5-5.68,2.51v0l-37.53-34.26
			c-1.19-1.09-1.45-2.86-0.63-4.25l13.51-22.65C566.46,169.38,568.97,169.01,570.56,170.45z"/>
		<path class="st6" d="M499.44,156.16h30.93c2.63,0,4.26,2.87,2.91,5.13l-16.4,27.49h-0.62l-1.02,1.75
			c-0.6,1.03-1.69,1.67-2.88,1.69l-30.15,0.46c-2.64,0.04-4.31-2.81-2.99-5.1l17.26-29.74C497.12,156.8,498.23,156.16,499.44,156.16
			z"/>
	</g>
	<g>
		<path class="st2" d="M730.39,627.34h-0.42c0,0,0.04,3.08-0.81,5.98l-1.58,5.04h5.34l-1.58-5
			C730.48,630.46,730.39,627.34,730.39,627.34z"/>
		<path class="st2" d="M475.51,627.04h-4.61v5.68h4.61c1.79,0,2.82-1.11,2.82-2.86S477.35,627.04,475.51,627.04z"/>
		<path class="st2" d="M632.72,627.34h-0.43c0,0,0.04,3.08-0.81,5.98l-1.58,5.04h5.34l-1.58-5
			C632.8,630.46,632.72,627.34,632.72,627.34z"/>
		<path class="st2" d="M563.74,627.04h-4.61v5.68h4.61c1.79,0,2.82-1.11,2.82-2.86S565.58,627.04,563.74,627.04z"/>
		<path class="st2" d="M369.26,603.6v60.79h485.48V603.6H369.26z M426.66,621.36l-6.79,27.09c-0.34,1.24-0.98,1.5-2.18,1.5h-5
			c-1.24,0-1.97-0.3-2.22-1.41l-2.31-10c-0.55-2.69-0.77-5.25-0.81-7.69H407c-0.09,2.44-0.34,4.96-0.94,7.69l-2.31,9.91
			c-0.3,1.24-1.03,1.5-2.22,1.5h-4.87c-1.24,0-1.97-0.26-2.22-1.41l-6.75-27.17c-0.3-1.2-0.17-1.75,1.15-1.75h5.26
			c1.5,0,2.14,0.26,2.39,1.58l1.88,11.19c0.34,2.27,0.6,6.37,0.6,7.56h0.3c0-1.28,0.3-5.25,0.81-7.56l2.65-11.19
			c0.3-1.37,1.03-1.58,2.39-1.58h4.57c1.37,0,2.14,0.26,2.39,1.58l2.65,11.19c0.51,2.44,0.77,6.32,0.81,7.56h0.34
			c0.04-1.2,0.3-5.21,0.64-7.56l1.8-11.19c0.25-1.33,0.9-1.58,2.43-1.58h4.74C426.83,619.61,426.96,620.16,426.66,621.36z
			 M456.55,638.66c0,7.35-4.7,11.92-13.12,11.92c-8.46,0-13.12-4.57-13.12-11.92v-7.78c0-7.35,4.66-11.92,13.12-11.92
			c8.42,0,13.12,4.57,13.12,11.92V638.66z M486.36,649.94h-4.61c-2.27,0-3.2-0.55-3.93-2.05l-2.73-5.85
			c-0.73-1.46-1.45-2.18-3.2-2.18h-0.98v8.29c0,1.32-0.43,1.79-1.79,1.79h-4.83c-1.37,0-1.79-0.47-1.79-1.79V621.4
			c0-1.33,0.42-1.79,1.79-1.79h12.18c6.45,0,10.64,3.67,10.64,10.3c0,4.14-1.71,7.18-4.61,8.8c0.42,0.56,0.81,1.15,1.15,1.84
			l3.85,7.31C488.07,649,487.77,649.94,486.36,649.94z M517.24,649.94h-4.61c-2.26,0-3.03-0.3-3.76-1.79l-3.72-7.65
			c-0.68-1.41-1.32-2.18-2.95-2.18h-0.77v9.83c0,1.32-0.43,1.79-1.79,1.79h-4.83c-1.37,0-1.8-0.47-1.8-1.79V621.4
			c0-1.33,0.43-1.79,1.8-1.79h4.83c1.37,0,1.79,0.47,1.79,1.79v9.48l0.6,0.04h0.34l6.15-9.74c0.81-1.33,1.24-1.58,3.42-1.58h4.91
			c1.28,0,1.71,0.77,1.03,1.88l-7.78,12.35c1.03,0.81,1.84,1.88,2.61,3.33l5.64,10.68C518.95,649,518.65,649.94,517.24,649.94z
			 M545.17,648.15c0,1.32-0.47,1.79-1.8,1.79h-18.29c-1.37,0-1.79-0.47-1.79-1.79V621.4c0-1.33,0.42-1.79,1.79-1.79h17.9
			c1.37,0,1.84,0.47,1.84,1.79v3.85c0,1.37-0.47,1.79-1.84,1.79h-11.28v3.85h9.02c1.37,0,1.84,0.47,1.84,1.84v3.8
			c0,1.37-0.47,1.84-1.84,1.84h-9.02v4.1h11.66c1.33,0,1.8,0.43,1.8,1.8V648.15z M574.59,649.94h-4.61c-2.26,0-3.21-0.55-3.93-2.05
			l-2.73-5.85c-0.73-1.46-1.45-2.18-3.21-2.18h-0.98v8.29c0,1.32-0.43,1.79-1.79,1.79h-4.83c-1.37,0-1.8-0.47-1.8-1.79V621.4
			c0-1.33,0.43-1.79,1.8-1.79h12.18c6.45,0,10.64,3.67,10.64,10.3c0,4.14-1.71,7.18-4.61,8.8c0.43,0.56,0.81,1.15,1.15,1.84
			l3.85,7.31C576.3,649,576,649.94,574.59,649.94z M592.61,650.58c-6.37,0-10.81-2.18-12.43-6.62c-0.43-1.28-0.09-1.88,1.15-2.35
			l4.01-1.45c1.28-0.43,1.84-0.3,2.52,0.94c0.77,1.5,2.43,2.27,4.83,2.27c2.86,0,4.61-0.6,4.61-2.44c0-1.71-2.22-2.13-5.04-2.52
			c-5-0.73-12.01-1.58-12.01-9.87c0-5.64,4.53-9.57,12.69-9.57c6.32,0,9.91,1.88,11.92,5.98c0.6,1.24,0.26,1.88-1.03,2.39
			l-4.23,1.84c-1.2,0.51-1.67,0.34-2.31-0.9c-0.85-1.62-2.39-2.22-4.36-2.22c-2.91,0-4.06,0.73-4.06,2.22c0,1.84,2.52,2.22,5.6,2.61
			c4.96,0.68,11.36,1.88,11.36,9.96C605.86,647.12,600.18,650.58,592.61,650.58z M645.96,649.94h-4.61c-2.18,0-2.86-0.47-3.2-1.79
			l-0.94-3.08h-9.31l-0.98,3.08c-0.39,1.32-0.98,1.79-3.08,1.79h-4.49c-1.32,0-1.58-0.6-1.15-1.75l9.82-27.09
			c0.43-1.24,1.03-1.49,2.22-1.49h4.87c1.2,0,1.79,0.3,2.22,1.41l9.87,27.17C647.63,649.34,647.24,649.94,645.96,649.94z
			 M672.35,648.15c0,1.32-0.47,1.79-1.79,1.79h-16.92c-1.37,0-1.8-0.47-1.8-1.79V621.4c0-1.33,0.43-1.79,1.8-1.79h4.83
			c1.37,0,1.79,0.47,1.79,1.79v21.06h10.3c1.32,0,1.79,0.43,1.79,1.8V648.15z M697.81,648.15c0,1.32-0.47,1.79-1.79,1.79h-16.92
			c-1.37,0-1.8-0.47-1.8-1.79V621.4c0-1.33,0.43-1.79,1.8-1.79h4.83c1.37,0,1.79,0.47,1.79,1.79v21.06h10.3
			c1.32,0,1.79,0.43,1.79,1.8V648.15z M711.17,648.23c0,1.28-0.43,1.71-1.71,1.71h-5c-1.28,0-1.71-0.43-1.71-1.71v-26.92
			c0-1.28,0.43-1.71,1.71-1.71h5c1.28,0,1.71,0.43,1.71,1.71V648.23z M743.64,649.94h-4.61c-2.18,0-2.86-0.47-3.21-1.79l-0.94-3.08
			h-9.31l-0.98,3.08c-0.38,1.32-0.98,1.79-3.08,1.79h-4.48c-1.33,0-1.58-0.6-1.15-1.75l9.83-27.09c0.42-1.24,1.03-1.49,2.22-1.49
			h4.87c1.2,0,1.8,0.3,2.22,1.41l9.87,27.17C745.3,649.34,744.91,649.94,743.64,649.94z M775.11,648.15c0,1.32-0.47,1.79-1.79,1.79
			h-4.83c-0.9,0-1.37-0.26-1.75-0.85l-6.58-10.17c-1.88-2.95-2.61-4.96-3.76-8.76h-0.34c0.9,4.02,1.41,6.24,1.41,11.03v6.96
			c0,1.32-0.47,1.79-1.84,1.79h-4.32c-1.37,0-1.79-0.47-1.79-1.79V621.4c0-1.33,0.42-1.79,1.79-1.79h5.04
			c0.94,0,1.41,0.26,1.79,0.85l7.01,10.98c1.88,2.91,2.27,4.57,3.59,7.77h0.34c-1.37-4.36-1.92-6.45-1.92-10.77v-7.05
			c0-1.33,0.43-1.79,1.79-1.79h4.36c1.33,0,1.79,0.47,1.79,1.79V648.15z M794.11,643.1c2.39,0,3.76-0.94,4.44-2.78
			c0.51-1.33,1.07-1.63,2.3-1.15l4.57,1.62c1.24,0.43,1.58,1.07,1.11,2.31c-1.75,4.79-5.85,7.48-12.43,7.48
			c-8.42,0-13.12-4.57-13.12-11.92v-7.78c0-7.35,4.7-11.92,13.12-11.92c6.58,0,10.68,2.69,12.43,7.48c0.47,1.24,0.13,1.84-1.11,2.31
			l-4.57,1.62c-1.32,0.39-1.84,0.17-2.3-1.15c-0.77-1.92-2.01-2.78-4.44-2.78c-3.38,0-4.7,1.45-4.7,4.4v7.86
			C789.41,641.65,790.74,643.1,794.11,643.1z M833.7,648.15c0,1.32-0.47,1.79-1.79,1.79h-18.29c-1.37,0-1.8-0.47-1.8-1.79V621.4
			c0-1.33,0.43-1.79,1.8-1.79h17.9c1.37,0,1.84,0.47,1.84,1.79v3.85c0,1.37-0.47,1.79-1.84,1.79h-11.28v3.85h9.01
			c1.37,0,1.84,0.47,1.84,1.84v3.8c0,1.37-0.47,1.84-1.84,1.84h-9.01v4.1h11.66c1.32,0,1.79,0.43,1.79,1.8V648.15z"/>
		<path class="st2" d="M443.44,626.44c-2.99,0-4.7,1.41-4.7,4.1V639c0,2.69,1.71,4.1,4.7,4.1c2.95,0,4.66-1.41,4.66-4.1v-8.46
			C448.09,627.85,446.38,626.44,443.44,626.44z"/>
		<path class="st2" d="M587.1,583.84h35.12c16.67,0,29.09-8.16,29.09-23.41c0-10.29-4.37-17.03-11.94-20.34v-0.47
			c6.03-4.14,8.51-9.46,8.51-17.38c0-14.43-9.81-22.35-26.13-22.35H587.1c-3.78,0-4.97,1.3-4.97,4.97v74.02
			C582.14,582.54,583.32,583.84,587.1,583.84z"/>
		<path class="st2" d="M704.01,583.84h10.61c3.67,0,4.97-1.18,4.97-4.97v-4.12l9.09,9.09h37.41c3.9,0,4.73-2.6,3.07-5.79
			l-15.61-29.56c-2.06-3.89-4.23-6.77-6.94-8.99v-0.67l21.24-33.73c1.89-3.07,0.71-5.2-2.84-5.2h-36.34l-9.09,9.09v-4.12
			c0-3.78-1.3-4.97-4.97-4.97h-10.61c-3.78,0-4.97,1.3-4.97,4.97v74.02C699.04,582.54,700.23,583.84,704.01,583.84z"/>
		<path class="st2" d="M457.75,583.84h12.41c1.71,0,7.94,0,15.41,0l6-6c1.71-1.71,4.47-1.71,6.18,0l6,6c6.96,0,12.81,0,14.89,0
			h12.77c3.55,0,4.61-1.66,3.43-4.85l-27.31-75.2c-1.18-3.07-2.84-3.9-6.15-3.9H487.9c-3.31,0-4.97,0.71-6.15,4.14L454.56,579
			C453.38,582.19,454.09,583.84,457.75,583.84z"/>
	</g>
</g>
</svg>
